<?xml version="1.0" encoding="UTF-8"?>
<svg width="427pt" height="427pt" version="1.1" viewBox="-40 0 427 427" xmlns="http://www.w3.org/2000/svg" xmlns:cc="http://creativecommons.org/ns#" xmlns:dc="http://purl.org/dc/elements/1.1/" xmlns:rdf="http://www.w3.org/1999/02/22-rdf-syntax-ns#">
 <g fill="#fff">
  <path d="m232.4 154.7c-5.5234 0-10 4.4766-10 10v189c0 5.5195 4.4766 10 10 10 5.5234 0 10-4.4805 10-10v-189c0-5.5234-4.4766-10-10-10z"/>
  <path d="m114.4 154.7c-5.5234 0-10 4.4766-10 10v189c0 5.5195 4.4766 10 10 10 5.5234 0 10-4.4805 10-10v-189c0-5.5234-4.4766-10-10-10z"/>
  <path d="m28.398 127.12v246.38c0 14.562 5.3398 28.238 14.668 38.051 9.2852 9.8398 22.207 15.426 35.73 15.449h189.2c13.527-0.023438 26.449-5.6094 35.73-15.449 9.3281-9.8125 14.668-23.488 14.668-38.051v-246.38c18.543-4.9219 30.559-22.836 28.078-41.863-2.4844-19.023-18.691-33.254-37.879-33.258h-51.199v-12.5c0.058593-10.512-4.0977-20.605-11.539-28.031-7.4414-7.4219-17.551-11.555-28.062-11.469h-88.797c-10.512-0.085938-20.621 4.0469-28.062 11.469-7.4414 7.4258-11.598 17.52-11.539 28.031v12.5h-51.199c-19.188 0.003906-35.395 14.234-37.879 33.258-2.4805 19.027 9.5352 36.941 28.078 41.863zm239.6 279.88h-189.2c-17.098 0-30.398-14.688-30.398-33.5v-245.5h250v245.5c0 18.812-13.301 33.5-30.398 33.5zm-158.6-367.5c-0.066407-5.207 1.9805-10.219 5.6758-13.895 3.6914-3.6758 8.7148-5.6953 13.926-5.6055h88.797c5.2109-0.089844 10.234 1.9297 13.926 5.6055 3.6953 3.6719 5.7422 8.6875 5.6758 13.895v12.5h-128zm-71.199 32.5h270.4c9.9414 0 18 8.0586 18 18s-8.0586 18-18 18h-270.4c-9.9414 0-18-8.0586-18-18s8.0586-18 18-18z"/>
  <path d="m173.4 154.7c-5.5234 0-10 4.4766-10 10v189c0 5.5195 4.4766 10 10 10 5.5234 0 10-4.4805 10-10v-189c0-5.5234-4.4766-10-10-10z"/>
 </g>
</svg>
