<?xml version="1.0" encoding="UTF-8"?>
<svg enable-background="new 0 0 512 512" version="1.1" viewBox="0 0 512 512" xml:space="preserve" xmlns="http://www.w3.org/2000/svg" xmlns:cc="http://creativecommons.org/ns#" xmlns:dc="http://purl.org/dc/elements/1.1/" xmlns:rdf="http://www.w3.org/1999/02/22-rdf-syntax-ns#">
<g fill="#fff" fill-opacity=".97209">
	<g fill="#fff" fill-opacity=".97209">
		<path d="m352 288.99v127.01h-288v-288h96v-64h-128c-17.664 0-32 14.336-32 32v352c0 17.696 14.336 32 32 32h352c17.696 0 32-14.304 32-32v-159.01h-64z" fill="#fff" fill-opacity=".97209"/>
	</g>
</g>
<g fill="#fff" fill-opacity=".97209">
	<g fill="#fff" fill-opacity=".97209">
		<path d="m505.6 131.2-128-96c-4.8-3.648-11.328-4.224-16.736-1.504-5.44 2.72-8.864 8.256-8.864 14.304v48h-48c-97.056 0-176 78.944-176 176 0 7.424 5.12 13.888 12.32 15.584 1.216 0.288 2.464 0.416 3.68 0.416 5.952 0 11.552-3.328 14.304-8.832l3.776-7.52c24.544-49.12 73.888-79.648 128.8-79.648h61.12v48c0 6.048 3.424 11.584 8.832 14.304s11.936 2.144 16.768-1.504l128-96c4.032-3.008 6.4-7.776 6.4-12.8s-2.368-9.792-6.4-12.8z" fill="#fff" fill-opacity=".97209"/>
	</g>
</g>
</svg>
