<svg id="Layer_1" enable-background="new 0 0 512 512" height="512" viewBox="0 0 512 512" width="512" xmlns="http://www.w3.org/2000/svg"><path d="m203.842 157.159c-.093.09.092-.091 0 0zm151.728 152.276c-.09.093.091-.092 0 0zm136.43-200.435c-11.046 0-20 8.954-20 20v263c0 44.112-35.888 80-80 80h-272c-44.112 0-80-35.888-80-80v-272c0-44.112 35.888-80 80-80h272c13.907 0 27.593 3.616 39.581 10.458.24.137.971.554 1.121 1.687.104.787-.127 1.468-.688 2.024l-108.233 107.405c-.03.029-.059.06-.089.089-2.017 2.027-5.107 1.515-6.616.892-2.076-.858-2.076-1.805-2.076-2.209 0-8.804 4.057-21.518 4.057-21.518 4.121-12.94 2.032-26.795-5.73-38.011-8.346-12.06-22.527-20.018-37.01-20.768-14.602-.762-29.481 6.406-39.798 19.157-8.133 10.052-13.79 22.241-19.259 34.03-4.327 9.324-9.23 19.893-13.418 23.922-6.094 6.095-19.708 11.733-33.829 17.416-18.656 7.508-39.801 16.018-57.039 30.898-21.217 18.316-31.974 42.777-31.974 72.703 0 20.273 4.29 71.486 43.98 109.845 38.358 39.69 89.571 43.98 109.845 43.98 29.926 0 54.386-10.758 72.701-31.974 14.88-17.238 23.391-38.384 30.898-57.04 5.683-14.12 11.051-27.458 17.145-33.552 4.028-4.188 14.869-9.368 24.193-13.695 11.789-5.47 23.979-11.125 34.031-19.26 27.001-20.994 24.924-61.153-3.831-77.821-9.579-5.504-21.803-2.199-27.305 7.379-5.502 9.577-2.199 21.802 7.378 27.305 1.818 1.044 2.814 2.837 2.962 5.329-.021.326-.332 3.449-4.366 6.714-16.806 12.843-46.477 19.961-61.478 35.896-33.902 36.312-31.137 112.849-92.33 110.718-15.198.001-53.545-3.115-81.277-31.98-.185-.192-.374-.381-.565-.565-28.865-27.734-31.981-66.08-31.981-81.279 0-38.014 24.159-50.479 63.947-66.492 17.951-7.225 34.909-14.049 46.772-25.838 9.505-9.22 15.768-22.717 21.825-35.772 4.447-9.584 9.046-19.494 14.071-25.705 3.256-4.023 6.371-4.343 6.711-4.366 7.904-.386 6.365 7.479 6.365 7.479-2.536 7.946-5.691 17.835-5.691 32.866-.243 39.198 50.527 56.808 76.993 29.585l108.196-107.37c9.484-9.413 13.918-22.41 12.167-35.661-1.748-13.217-9.383-24.582-20.948-31.183-18.016-10.282-38.559-15.718-59.408-15.718h-272c-66.168 0-120 53.832-120 120v272c0 66.168 53.832 120 120 120h272c66.168 0 120-53.832 120-120v-263c0-11.046-8.954-20-20-20zm-198.409 170.679c7.555-8.059 7.146-20.715-.912-28.27l-32-30c-20.08-17.38-45.986 10.283-27.357 29.182l32 30c3.859 3.618 8.772 5.409 13.675 5.409 5.334 0 10.657-2.122 14.594-6.321zm-65.595 58.321c-4.903 0-9.816-1.791-13.675-5.409l-32-30c-8.058-7.555-8.467-20.211-.912-28.27 7.555-8.058 20.211-8.467 28.27-.912l32 30c8.058 7.555 8.467 20.211.912 28.27-3.937 4.199-9.26 6.321-14.595 6.321z"/></svg>