<?xml version="1.0" encoding="UTF-8"?>
<!-- Generator: Adobe Illustrator 19.0.0, SVG Export Plug-In . SVG Version: 6.00 Build 0)  -->
<svg enable-background="new 0 0 512.001 512.001" version="1.1" viewBox="0 0 512 512" xml:space="preserve" xmlns="http://www.w3.org/2000/svg" xmlns:cc="http://creativecommons.org/ns#" xmlns:dc="http://purl.org/dc/elements/1.1/" xmlns:rdf="http://www.w3.org/1999/02/22-rdf-syntax-ns#"><metadata><rdf:RDF><cc:Work rdf:about=""><dc:format>image/svg+xml</dc:format><dc:type rdf:resource="http://purl.org/dc/dcmitype/StillImage"/><dc:title/></cc:Work></rdf:RDF></metadata>
<g fill="#fff">
	<g fill="#fff">
		<g fill="#fff">
			<path d="m481 371c11.046 0 20-8.954 20-20v-92c0-33.084-26.916-60-60-60h-39v-79c0-44.112-35.888-80-80-80h-47.533c-7.739-23.749-29.864-40-55.16-40h-25.614c-25.296 0-47.421 16.251-55.16 40h-47.533c-44.112 0-80 35.888-80 80v312c0 44.112 35.888 80 80 80h88c11.046 0 20-8.954 20-20s-8.954-20-20-20h-88c-22.056 0-40-17.944-40-40v-312c0-22.056 17.944-40 40-40h2v59c0 11.046 8.954 20 20 20h189c11.046 0 20-8.954 20-20v-59c22.056 0 40 17.944 40 40v79h-65.007c-33.079 0-59.993 26.913-59.993 59.993v193.02c0 33.08 26.916 59.993 60.01 59.993l143.99-0.075c33.084 0 60-26.913 60-59.992 0-11.046-8.954-20-20-20s-20 8.954-20 20c0 11.024-8.972 19.992-20.01 19.992l-143.99 0.074c-11.028 0-20-8.969-20-19.993v-193.01c0-11.024 8.969-19.993 19.993-19.993h144.01c11.028 0 20 8.972 20 20v92c0 11.046 8.955 20 20 20zm-199-252h-149v-39h21c9.177 0 17.177-6.246 19.403-15.149l2.798-11.194c2.01-8.041 9.203-13.657 17.492-13.657h25.614c8.289 0 15.481 5.616 17.492 13.657l2.798 11.194c2.226 8.903 10.226 15.149 19.403 15.149h23v39z"/>
			<path d="m401 279h-64c-11.046 0-20 8.954-20 20s8.954 20 20 20h64c11.046 0 20-8.954 20-20s-8.953-20-20-20z"/>
			<path d="m401 349h-64c-11.046 0-20 8.954-20 20s8.954 20 20 20h64c11.046 0 20-8.954 20-20s-8.953-20-20-20z"/>
		</g>
	</g>
</g>















</svg>
