<?xml version="1.0" encoding="UTF-8"?>
<svg width="469.33pt" height="469.33pt" version="1.1" viewBox="0 0 469.33 469.33" xmlns="http://www.w3.org/2000/svg" xmlns:cc="http://creativecommons.org/ns#" xmlns:dc="http://purl.org/dc/elements/1.1/" xmlns:rdf="http://www.w3.org/1999/02/22-rdf-syntax-ns#">
  <path d="m437.33 192h-160v-160c0-17.664-14.336-32-32-32h-21.332c-17.664 0-32 14.336-32 32v160h-160c-17.664 0-32 14.336-32 32v21.332c0 17.664 14.336 32 32 32h160v160c0 17.664 14.336 32 32 32h21.332c17.664 0 32-14.336 32-32v-160h160c17.664 0 32-14.336 32-32v-21.332c0-17.664-14.336-32-32-32z" fill="#fff"/>
</svg>
