<?xml version="1.0" encoding="UTF-8"?>
<!-- Generator: Adobe Illustrator 19.0.0, SVG Export Plug-In . SVG Version: 6.00 Build 0)  -->
<svg enable-background="new 0 0 512 512" version="1.1" viewBox="0 0 512 512" xml:space="preserve" xmlns="http://www.w3.org/2000/svg" xmlns:cc="http://creativecommons.org/ns#" xmlns:dc="http://purl.org/dc/elements/1.1/" xmlns:rdf="http://www.w3.org/1999/02/22-rdf-syntax-ns#">
<g fill="#fff">
	<g fill="#fff">
		<path d="m492 352c11.046 0 20-8.954 20-20v-252c0-44.112-35.888-80-80-80h-352c-44.112 0-80 35.888-80 80v352c0 44.112 35.888 80 80 80h352c44.112 0 80-35.888 80-80 0-11.046-8.954-20-20-20s-20 8.954-20 20c0 22.056-17.944 40-40 40h-352c-22.056 0-40-17.944-40-40v-352c0-22.056 17.944-40 40-40h352c22.056 0 40 17.944 40 40v252c0 11.046 8.954 20 20 20z" fill="#fff"/>
	</g>
</g>
</svg>
